<?xml version="1.0" encoding="UTF-8"?><svg id="a" xmlns="http://www.w3.org/2000/svg" viewBox="0 0 349 348"><defs><style>.b{fill:#fff;}</style></defs><path class="b" d="M4.52,166.4l.47-6.01c.3-3.8,2.55-5.5,6.42-5.2l12.23,.95c3.87,.3,5.83,2.33,5.54,6.13l-.47,6.01-24.18-1.89Zm3.75-3.53l17.28,1.35,.17-2.14c.09-1.21-.47-1.98-2.2-2.12l-12.58-.98c-1.73-.13-2.41,.54-2.5,1.75l-.17,2.14Z"/><path class="b" d="M2.44,140.73l3.21,4.12-.42,2.53-3.4-2.96,.62-3.69Zm14.24,7.9l.86-5.16,3.42,.57-.86,5.16,7.01,1.17,1.09-6.49,3.42,.57-1.72,10.25-23.92-4.01,1.72-10.25,3.42,.57-1.09,6.49,6.66,1.12Z"/><path class="b" d="M26.01,129.68l3.12,.81c3.76,.97,5.42,3.4,4.48,7.03s-3.57,4.95-7.33,3.98l-12.21-3.15c-3.76-.97-5.42-3.4-4.48-7.03s3.57-4.95,7.33-3.98l2.28,.59-.9,3.49-2.52-.65c-1.68-.43-2.51,.14-2.81,1.31s.14,2.08,1.82,2.51l12.68,3.28c1.68,.43,2.47-.15,2.78-1.32s-.11-2.07-1.79-2.5l-3.36-.87,.9-3.49Z"/><path class="b" d="M17.84,124.33c-3.66-1.3-5.06-3.98-3.8-7.5,1.26-3.53,4.03-4.71,7.69-3.4l11.88,4.24c3.66,1.3,5.06,3.98,3.8,7.5s-4.03,4.71-7.69,3.4l-11.88-4.24Zm13.39,.73c1.63,.58,2.51,.09,2.92-1.06,.41-1.14,.04-2.08-1.59-2.66l-12.34-4.4c-1.63-.58-2.51-.09-2.92,1.06-.41,1.14-.04,2.08,1.59,2.66l12.34,4.4Z"/><path class="b" d="M19.34,104.37l16.98,7.86c1.57,.73,2.46,.3,2.97-.8,.51-1.1,.26-2.05-1.31-2.78l-16.98-7.86,1.51-3.27,16.76,7.76c3.52,1.63,4.72,4.32,3.15,7.72-1.57,3.4-4.4,4.22-7.92,2.59l-16.76-7.76,1.6-3.46Z"/><path class="b" d="M44.48,98.68l.03-.06-15.68-12.41,1.75-3.03,19.11,15.4-2.85,4.92-22.86-8.92,1.93-3.33,18.56,7.43Z"/><path class="b" d="M56.9,87.83c-.63-.19-1.02-.3-2.63-1.44l-3.11-2.2c-1.84-1.3-2.96-1.16-3.96,.25l-.76,1.07,8.06,5.71-2.2,3.11-19.79-14.03,3.33-4.69c2.28-3.22,4.76-3.55,7.82-1.38l1.56,1.1c2.04,1.44,2.87,3.02,2.54,4.86l.06,.04c1.75-1.09,3.58-.56,5.65,.9l3.05,2.16c.96,.68,1.69,1.15,2.64,1.36l-2.24,3.17Zm-19.37-8.63l6.08,4.31,.86-1.22c.82-1.16,.81-2.23-.77-3.35l-1.95-1.38c-1.41-1-2.38-.96-3.16,.14l-1.06,1.5Z"/><path class="b" d="M51.92,71.47l3.39-3.99,2.64,2.24-3.39,3.99,5.41,4.6,4.26-5.02,2.64,2.24-6.73,7.92-18.49-15.71,6.73-7.92,2.64,2.24-4.26,5.02,5.15,4.38Z"/><path class="b" d="M58.55,49.53l2.4,2.41,7.13,17.44,5.13-5.11,2.44,2.46-7.91,7.87-2.39-2.41-7.13-17.44-4.89,4.86-2.44-2.46,7.67-7.62Z"/><path class="b" d="M90.6,54.6l-3.04,2.36-3.22-3.08-3.7,2.87,2.18,3.88-2.77,2.14-11.79-21.55,4.41-3.42,17.93,16.8Zm-11.59-.75l2.9-2.25-8.94-8.59-.05,.04,6.09,10.8Z"/><path class="b" d="M82.72,30.52c3.12-2,5.92-1.16,8.02,2.1l.41,.64-3.03,1.95-.54-.85c-.94-1.46-1.87-1.64-2.9-.98s-1.25,1.58-.31,3.04c.95,1.49,2.31,2.18,5.59,2.68,4.2,.64,6.13,1.79,7.63,4.12,2.1,3.27,1.66,6.18-1.49,8.2-3.15,2.02-5.98,1.2-8.08-2.07l-.8-1.25,3.03-1.95,.94,1.46c.94,1.46,1.91,1.57,2.94,.92,1.02-.65,1.33-1.59,.39-3.05-.95-1.49-2.31-2.18-5.59-2.68-4.2-.64-6.13-1.79-7.63-4.12-2.1-3.27-1.69-6.16,1.43-8.17Z"/><path class="b" d="M102.12,36.4l-.02,2.51,3.44,6.61-3.38,1.76-11.21-21.51,3.38-1.76,4.85,9.31,.06-.03-.49-11.59,3.38-1.76,.3,12.04,10.92,9.47-3.47,1.81-7.76-6.86Z"/><path class="b" d="M125.87,36.36l-3.56,1.45-2.27-3.83-4.33,1.76,1.05,4.32-3.24,1.32-5.54-23.93,5.17-2.1,12.73,21.01Zm-10.95-3.85l3.4-1.38-6.29-10.68-.06,.03,2.95,12.04Z"/><path class="b" d="M125.3,18.17l-.07,.02,5.03,16.83-3.29,.98-6.94-23.24,4.58-1.37,7.84,12.81,.07-.02-4.16-13.91,3.25-.97,6.94,23.24-3.75,1.12-9.51-15.49Z"/><path class="b" d="M141.67,17.54l5.13-1.04,.69,3.4-5.13,1.04,1.41,6.96,6.45-1.3,.69,3.4-10.19,2.06-4.8-23.78,10.19-2.06,.69,3.4-6.45,1.3,1.34,6.62Z"/><path class="b" d="M162,11.72c2.66-.2,4.97,1.77,5.17,4.43s-1.77,4.97-4.43,5.17c-2.66,.2-4.97-1.77-5.17-4.43-.2-2.66,1.77-4.97,4.43-5.17Z"/><path class="b" d="M177.35,3.85l6.02,.29c3.81,.19,5.57,2.39,5.38,6.26l-.6,12.25c-.19,3.88-2.16,5.9-5.97,5.71l-6.02-.29,1.18-24.23Zm3.64,3.65l-.85,17.31,2.15,.1c1.21,.06,1.97-.53,2.05-2.26l.61-12.6c.09-1.73-.61-2.39-1.82-2.45l-2.15-.1Z"/><path class="b" d="M195.48,15.49l5.18,.71-.47,3.43-5.18-.71-.97,7.04,6.52,.9-.47,3.43-10.3-1.42,3.31-24.03,10.3,1.42-.47,3.43-6.52-.9-.92,6.69Zm7.49-14.47l-4.03,3.33-2.54-.35,2.86-3.49,3.71,.51Z"/><path class="b" d="M214.67,24.25l-.71,3.14c-.86,3.78-3.24,5.52-6.89,4.69-3.65-.83-5.05-3.42-4.19-7.21l2.79-12.3c.86-3.78,3.24-5.52,6.89-4.69s5.05,3.42,4.19,7.21l-.52,2.3-3.51-.8,.58-2.53c.38-1.69-.21-2.5-1.4-2.77-1.18-.27-2.07,.2-2.46,1.89l-2.9,12.77c-.38,1.69,.22,2.47,1.4,2.73s2.06-.17,2.45-1.86l.77-3.38,3.51,.8Z"/><path class="b" d="M219.8,15.93c1.2-3.69,3.82-5.17,7.38-4.02,3.56,1.15,4.82,3.89,3.63,7.58l-3.89,12c-1.2,3.69-3.82,5.17-7.38,4.02-3.56-1.15-4.82-3.89-3.63-7.58l3.89-12Zm-.34,13.4c-.53,1.65-.01,2.51,1.14,2.88,1.15,.37,2.08-.02,2.62-1.67l4.04-12.46c.53-1.65,.01-2.51-1.14-2.88-1.15-.37-2.08,.02-2.62,1.67l-4.04,12.46Z"/><path class="b" d="M239.81,16.85l-7.36,17.2c-.68,1.59-.23,2.47,.89,2.94,1.12,.48,2.06,.2,2.74-1.39l7.36-17.2,3.31,1.42-7.26,16.98c-1.53,3.57-4.18,4.84-7.62,3.37-3.44-1.47-4.35-4.27-2.83-7.84l7.27-16.98,3.5,1.5Z"/><path class="b" d="M246.22,41.81l.06,.03,11.95-16.03,3.08,1.67-14.84,19.55-5-2.71,8.25-23.11,3.38,1.83-6.89,18.77Z"/><path class="b" d="M257.43,53.91c.17-.63,.27-1.03,1.36-2.67l2.11-3.17c1.25-1.87,1.08-2.99-.37-3.95l-1.1-.73-5.48,8.22-3.17-2.11,13.45-20.19,4.79,3.19c3.29,2.19,3.68,4.66,1.61,7.78l-1.06,1.59c-1.38,2.08-2.93,2.96-4.79,2.68l-.04,.06c1.14,1.72,.66,3.57-.74,5.67l-2.07,3.11c-.65,.98-1.11,1.72-1.29,2.68l-3.23-2.15Zm8.07-19.61l-4.13,6.2,1.24,.83c1.18,.79,2.25,.75,3.33-.87l1.33-1.99c.96-1.44,.89-2.4-.23-3.15l-1.53-1.02Z"/><path class="b" d="M273.65,48.46l4.08,3.27-2.17,2.7-4.08-3.27-4.44,5.54,5.14,4.12-2.17,2.7-8.11-6.5,15.17-18.93,8.11,6.5-2.17,2.7-5.14-4.12-4.23,5.27Z"/><path class="b" d="M295.77,54.45l-2.34,2.46-17.22,7.63,5.25,4.98-2.38,2.51-8.09-7.68,2.34-2.46,17.22-7.63-5-4.75,2.38-2.51,7.84,7.44Z"/><path class="b" d="M291.61,86.6l-2.44-2.97,2.98-3.3-2.97-3.61-3.82,2.29-2.22-2.7,21.2-12.41,3.54,4.31-16.27,18.41Zm.42-11.6l2.33,2.84,8.33-9.18-.04-.05-10.62,6.4Z"/><path class="b" d="M315.46,78.04c2.09,3.06,1.34,5.89-1.87,8.08l-.63,.43-2.03-2.97,.83-.57c1.43-.98,1.58-1.92,.9-2.92s-1.62-1.2-3.05-.22c-1.46,1-2.12,2.37-2.51,5.66-.52,4.22-1.61,6.18-3.9,7.74-3.2,2.19-6.13,1.84-8.24-1.25-2.11-3.09-1.38-5.94,1.83-8.13l1.23-.84,2.03,2.98-1.43,.98c-1.43,.98-1.52,1.96-.83,2.96,.68,1,1.63,1.28,3.06,.3,1.46-1,2.12-2.37,2.51-5.66,.52-4.22,1.61-6.18,3.9-7.74,3.2-2.19,6.11-1.87,8.2,1.19Z"/><path class="b" d="M310.14,97.59l-2.51,.05-6.5,3.63-1.86-3.33,21.17-11.84,1.86,3.33-9.16,5.12,.03,.06,11.56-.83,1.86,3.33-12.02,.65-9.15,11.19-1.91-3.42,6.63-7.95Z"/><path class="b" d="M310.89,121.34l-1.55-3.52,3.76-2.38-1.89-4.28-4.29,1.17-1.41-3.2,23.76-6.24,2.25,5.1-20.62,13.35Zm3.53-11.06l1.48,3.36,10.49-6.6-.03-.06-11.95,3.31Z"/><path class="b" d="M329.06,120.24l-.02-.07-16.68,5.53-1.08-3.26,23.03-7.63,1.5,4.54-12.58,8.22,.02,.07,13.78-4.57,1.07,3.22-23.03,7.63-1.23-3.72,15.21-9.97Z"/><path class="b" d="M330.17,136.6l1.18,5.1-3.37,.78-1.18-5.1-6.92,1.61,1.49,6.41-3.37,.78-2.35-10.13,23.62-5.49,2.35,10.13-3.37,.78-1.49-6.41-6.58,1.53Z"/><path class="b" d="M336.59,156.75c.28,2.65-1.63,5.02-4.28,5.3-2.65,.28-5.02-1.63-5.3-4.28-.28-2.65,1.63-5.02,4.28-5.3,2.65-.28,5.02,1.63,5.3,4.28Z"/><path class="b" d="M344.89,171.86l-.12,6.03c-.08,3.81-2.23,5.64-6.11,5.56l-12.26-.24c-3.88-.08-5.96-1.99-5.88-5.8l.12-6.03,24.25,.48Zm-3.54,3.74l-17.32-.34-.04,2.15c-.02,1.21,.59,1.95,2.32,1.99l12.61,.25c1.73,.03,2.37-.68,2.39-1.89l.04-2.15Z"/><path class="b" d="M333.78,190.31l-.56,5.2-3.44-.37,.56-5.2-7.06-.76-.71,6.54-3.44-.37,1.12-10.33,24.11,2.61-1.12,10.33-3.45-.37,.71-6.54-6.72-.73Zm14.67,7.06l-3.44-3.93,.28-2.55,3.57,2.76-.4,3.72Z"/><path class="b" d="M325.59,209.76l-3.16-.62c-3.81-.75-5.61-3.08-4.89-6.75s3.27-5.15,7.08-4.4l12.38,2.43c3.81,.75,5.61,3.08,4.89,6.75-.72,3.67-3.27,5.15-7.08,4.4l-2.31-.45,.69-3.54,2.55,.5c1.7,.33,2.49-.29,2.73-1.48s-.27-2.07-1.97-2.4l-12.86-2.52c-1.7-.33-2.46,.29-2.69,1.48-.23,1.19,.23,2.06,1.93,2.39l3.4,.67-.69,3.54Z"/><path class="b" d="M334.06,214.63c3.73,1.09,5.28,3.67,4.24,7.26s-3.75,4.94-7.48,3.85l-12.11-3.53c-3.73-1.09-5.28-3.67-4.24-7.26s3.75-4.94,7.48-3.85l12.11,3.53Zm-13.41,.06c-1.66-.49-2.51,.06-2.85,1.23-.34,1.16,.08,2.08,1.74,2.57l12.58,3.67c1.66,.48,2.51-.06,2.85-1.23,.34-1.16-.08-2.08-1.74-2.57l-12.58-3.67Z"/><path class="b" d="M333.73,234.65l-17.41-6.85c-1.61-.63-2.47-.15-2.92,.97s-.14,2.07,1.47,2.7l17.41,6.85-1.32,3.35-17.19-6.76c-3.61-1.42-4.96-4.04-3.59-7.52,1.37-3.48,4.14-4.48,7.76-3.05l17.19,6.76-1.4,3.55Z"/><path class="b" d="M308.96,241.81l-.03,.06,16.38,11.47-1.57,3.13-19.98-14.26,2.56-5.08,23.35,7.57-1.73,3.44-18.97-6.33Z"/><path class="b" d="M297.2,253.37c.64,.15,1.04,.24,2.71,1.29l3.23,2.02c1.91,1.19,3.02,.99,3.94-.48l.7-1.12-8.38-5.23,2.02-3.23,20.57,12.86-3.05,4.88c-2.09,3.35-4.55,3.82-7.73,1.83l-1.62-1.01c-2.12-1.32-3.05-2.84-2.82-4.71l-.06-.04c-1.69,1.19-3.54,.77-5.69-.57l-3.17-1.98c-1-.62-1.75-1.05-2.72-1.21l2.06-3.29Zm19.84,7.49l-6.32-3.95-.79,1.26c-.75,1.21-.68,2.27,.96,3.3l2.03,1.27c1.47,.92,2.43,.82,3.14-.32l.97-1.56Z"/><path class="b" d="M303.12,269.41l-3.15,4.18-2.77-2.09,3.15-4.18-5.67-4.28-3.96,5.26-2.77-2.09,6.26-8.3,19.36,14.61-6.26,8.3-2.77-2.09,3.96-5.26-5.39-4.07Z"/><path class="b" d="M297.77,291.7l-2.53-2.26-8.13-17-4.83,5.4-2.58-2.31,7.44-8.31,2.53,2.26,8.13,17,4.6-5.14,2.58,2.31-7.21,8.06Z"/><path class="b" d="M265.5,288.48l2.9-2.53,3.39,2.88,3.53-3.08-2.4-3.75,2.64-2.3,13.03,20.83-4.2,3.67-18.88-15.73Zm11.61,.08l-2.77,2.42,9.43,8.06,.05-.05-6.71-10.43Z"/><path class="b" d="M274.75,312.07c-3,2.18-5.84,1.51-8.13-1.63l-.45-.62,2.91-2.12,.59,.81c1.02,1.4,1.97,1.53,2.95,.81s1.15-1.65,.14-3.05c-1.04-1.43-2.43-2.05-5.73-2.34-4.23-.4-6.22-1.43-7.85-3.67-2.28-3.14-2.02-6.07,1.01-8.27s5.9-1.55,8.18,1.59l.88,1.21-2.91,2.12-1.02-1.4c-1.02-1.4-2-1.46-2.98-.74-.98,.71-1.23,1.67-.21,3.07,1.04,1.43,2.43,2.05,5.73,2.34,4.23,.4,6.22,1.43,7.85,3.67,2.28,3.14,2.05,6.05-.95,8.23Z"/><path class="b" d="M255.07,307.32l-.13-2.51-3.82-6.39,3.27-1.96,12.45,20.82-3.27,1.96-5.39-9.01-.06,.04,1.17,11.54-3.27,1.96-1-12-11.45-8.82,3.36-2.01,8.14,6.39Z"/><path class="b" d="M231.35,308.76l3.47-1.66,2.49,3.69,4.22-2.01-1.3-4.25,3.16-1.51,6.94,23.56-5.03,2.4-13.95-20.22Zm11.16,3.2l-3.31,1.58,6.91,10.3,.06-.03-3.66-11.85Z"/><path class="b" d="M232.97,326.9l.07-.02-6.01-16.51,3.22-1.17,8.3,22.79-4.49,1.64-8.58-12.33-.06,.02,4.97,13.64-3.19,1.16-8.3-22.8,3.68-1.34,10.41,14.91Z"/><path class="b" d="M216.66,328.48l-5.06,1.33-.88-3.35,5.06-1.33-1.81-6.87-6.37,1.68-.88-3.35,10.05-2.65,6.18,23.45-10.05,2.65-.88-3.35,6.37-1.68-1.72-6.53Z"/><path class="b" d="M196.72,335.49c-2.64,.36-5.06-1.48-5.42-4.13s1.48-5.06,4.13-5.42c2.64-.36,5.06,1.48,5.42,4.13,.36,2.64-1.48,5.06-4.13,5.42Z"/><path class="b" d="M182.01,344.19l-6.03,.1c-3.81,.06-5.72-2.02-5.78-5.9l-.2-12.27c-.06-3.88,1.77-6.03,5.58-6.09l6.03-.1,.4,24.26Zm-3.87-3.4l-.28-17.33-2.15,.03c-1.21,.02-1.93,.66-1.9,2.39l.21,12.61c.03,1.73,.77,2.34,1.98,2.32l2.15-.03Z"/><path class="b" d="M163.1,333.66l-5.22-.41,.27-3.46,5.22,.41,.56-7.08-6.56-.52,.27-3.46,10.36,.82-1.9,24.19-10.37-.82,.27-3.46,6.56,.52,.53-6.74Zm-6.63,14.88l3.83-3.56,2.56,.2-2.65,3.65-3.73-.29Z"/><path class="b" d="M143.41,326.04l.53-3.18c.64-3.83,2.91-5.7,6.61-5.09,3.69,.61,5.24,3.12,4.61,6.95l-2.07,12.44c-.64,3.83-2.91,5.7-6.61,5.09-3.69-.61-5.24-3.12-4.61-6.95l.39-2.32,3.56,.59-.43,2.56c-.28,1.71,.36,2.48,1.56,2.68,1.2,.2,2.06-.33,2.34-2.04l2.14-12.92c.28-1.71-.37-2.45-1.56-2.65-1.2-.2-2.05,.29-2.33,2l-.57,3.42-3.56-.59Z"/><path class="b" d="M138.8,334.65c-.98,3.76-3.51,5.39-7.14,4.45-3.62-.94-5.04-3.6-4.07-7.36l3.17-12.21c.98-3.76,3.51-5.39,7.14-4.45,3.62,.94,5.04,3.6,4.07,7.36l-3.17,12.21Zm-.46-13.4c.44-1.68-.14-2.51-1.31-2.81-1.17-.31-2.08,.14-2.51,1.82l-3.3,12.68c-.44,1.68,.14,2.51,1.31,2.81s2.08-.14,2.51-1.82l3.3-12.68Z"/><path class="b" d="M118.76,334.91l6.34-17.61c.59-1.63,.08-2.48-1.06-2.89-1.14-.41-2.07-.08-2.66,1.55l-6.34,17.61-3.39-1.22,6.26-17.38c1.31-3.65,3.89-5.08,7.41-3.81s4.6,4.01,3.28,7.66l-6.26,17.38-3.59-1.29Z"/><path class="b" d="M110.87,310.35l-.06-.03-10.99,16.71-3.17-1.48,13.66-20.39,5.15,2.41-6.88,23.56-3.48-1.63,5.77-19.14Z"/><path class="b" d="M98.98,298.94c-.14,.64-.21,1.04-1.21,2.75l-1.92,3.29c-1.14,1.94-.9,3.05,.6,3.92l1.14,.66,4.99-8.52,3.29,1.92-12.25,20.93-4.96-2.91c-3.41-1.99-3.95-4.44-2.06-7.67l.96-1.64c1.26-2.15,2.75-3.13,4.62-2.96l.04-.06c-1.24-1.65-.87-3.52,.41-5.7l1.89-3.23c.6-1.02,1-1.78,1.13-2.75l3.35,1.96Zm-6.91,20.04l3.76-6.43-1.29-.75c-1.23-.72-2.29-.62-3.27,1.06l-1.21,2.06c-.87,1.5-.75,2.45,.41,3.13l1.59,.93Z"/><path class="b" d="M83.13,305.33l-4.27-3.03,2.01-2.83,4.27,3.03,4.11-5.79-5.37-3.81,2.01-2.83,8.48,6.02-14.04,19.78-8.48-6.02,2.01-2.83,5.37,3.81,3.91-5.51Z"/><path class="b" d="M60.69,300.63l2.19-2.59,16.75-8.62-5.53-4.67,2.24-2.65,8.53,7.2-2.19,2.59-16.75,8.62,5.27,4.45-2.24,2.65-8.26-6.97Z"/><path class="b" d="M62.95,268.27l2.61,2.82-2.78,3.47,3.18,3.43,3.68-2.51,2.38,2.57-20.44,13.63-3.79-4.09,15.17-19.32Zm.26,11.61l-2.5-2.7-7.78,9.65,.05,.05,10.23-7.01Z"/><path class="b" d="M39.65,278.22c-2.27-2.93-1.68-5.8,1.39-8.17l.6-.47,2.2,2.85-.79,.61c-1.37,1.06-1.47,2.01-.73,2.97,.74,.96,1.69,1.11,3.06,.05,1.4-1.08,1.97-2.49,2.18-5.8,.27-4.24,1.25-6.26,3.44-7.96,3.07-2.37,6.01-2.19,8.3,.77,2.29,2.96,1.72,5.85-1.35,8.23l-1.18,.91-2.2-2.85,1.37-1.06c1.37-1.06,1.4-2.04,.66-3-.74-.96-1.7-1.18-3.07-.12-1.4,1.08-1.97,2.49-2.18,5.8-.27,4.24-1.25,6.26-3.44,7.96-3.07,2.37-5.99,2.22-8.26-.71Z"/><path class="b" d="M43.82,258.4l2.5-.2,6.28-4.01,2.05,3.21-20.45,13.05-2.05-3.21,8.85-5.65-.04-.06-11.5,1.5-2.05-3.21,11.97-1.35,8.48-11.7,2.11,3.3-6.15,8.33Z"/><path class="b" d="M41.69,234.73l1.76,3.42-3.61,2.59,2.14,4.16,4.21-1.42,1.6,3.11-23.35,7.62-2.55-4.96,19.8-14.53Zm-2.87,11.25l-1.68-3.27-10.09,7.2,.03,.06,11.73-4Z"/><path class="b" d="M23.61,236.88l.03,.06,16.33-6.49,1.27,3.19-22.54,8.96-1.77-4.44,12.07-8.94-.03-.06-13.49,5.37-1.25-3.16,22.54-8.96,1.45,3.64-14.6,10.84Z"/><path class="b" d="M21.54,220.65l-1.48-5.02,3.32-.98,1.48,5.02,6.81-2.01-1.87-6.31,3.32-.98,2.95,9.97-23.26,6.88-2.95-9.97,3.32-.98,1.87,6.31,6.48-1.92Z"/><path class="b" d="M13.95,200.89c-.44-2.63,1.33-5.1,3.97-5.54,2.63-.44,5.1,1.33,5.54,3.97,.44,2.63-1.33,5.1-3.97,5.54s-5.1-1.33-5.54-3.97Z"/></svg>