<?xml version="1.0" encoding="UTF-8"?><svg id="a" xmlns="http://www.w3.org/2000/svg" viewBox="0 0 1080 277.08"><defs><style>.b{fill:#fff;}</style></defs><g><path class="b" d="M112.97,4.28v12.56C101.89,6.68,87.22,.68,70.44,.68,35.79,.68,8.22,24.54,0,58.79l56.57,98.13h35.39c7.88-2.74,14.96-7.02,21.01-12.56v12.56h48.46V4.28h-48.46Zm-32.94,109.2c-18.84,0-32.65-14.04-32.65-32.88s13.81-32.94,32.65-32.94,32.94,14.04,32.94,32.94-14.1,32.88-32.94,32.88Z"/><path class="b" d="M259.56,59.65c-14.04-3.03-24.54-5.42-24.54-12.56,0-6.34,8.39-9.02,18.55-9.02,14.67,0,26.66,5.42,38.65,12.9l21.52-30.54C299.06,10.27,279.31,.68,251.8,.68c-35.62,0-64.96,16.44-64.96,50.29,0,36.48,32.94,43.95,56.57,49.09,14.39,2.97,24.83,5.65,24.83,12.84,0,6.57-8.68,10.16-21.23,10.16-17.35,0-31.11-6.57-43.38-15.87l-21.58,30.54c10.05,7.65,22.72,15.07,38.65,19.18,8.33,2.28,17.58,3.6,27.8,3.6s19.18-1.2,27.51-3.6c24.09-6.74,40.41-23.18,40.41-48.52,0-36.48-33.22-44.3-56.86-48.75Z"/><path class="b" d="M429.27,73.69L492.97,4.28h-62.56l-44.24,51.15V0h-48.52V156.92h48.52v-35.91l8.96-10.22,36.48,46.12h63.48l-65.82-83.23Z"/><path class="b" d="M603.43,4.28v12.56c-11.08-10.16-25.75-16.16-42.53-16.16-41.61,0-73.01,34.42-73.01,79.92,0,36.82,20.55,66.39,50.52,76.32,7.02,2.34,14.56,3.6,22.49,3.6s14.9-1.26,21.52-3.6c7.88-2.74,14.96-7.02,21.01-12.56v12.56h48.46V4.28h-48.46Zm-32.94,109.2c-18.84,0-32.65-14.04-32.65-32.88s13.82-32.94,32.65-32.94,32.94,14.04,32.94,32.94-14.1,32.88-32.94,32.88Z"/><path class="b" d="M776.68,.68c-17.35,0-32.31,5.71-44.01,17.07V4.28h-48.46V156.92h48.46V74.61c0-16.15,11.07-26.94,27.57-26.94,15.53,0,25.4,10.5,25.4,26.32v82.94h48.52V57.83c0-34.42-23.06-57.14-57.48-57.14Z"/><path class="b" d="M941.88,118.9c-16.78,0-29.68-8.96-34.76-23.63h107.89L962.66,4.62c-8.16-2.57-16.95-3.94-26.2-3.94-46.35,0-81.4,34.14-81.4,79,0,37.33,23.97,67.19,58.97,77.23,8.22,2.34,17.07,3.6,26.31,3.6s18.21-1.26,26.54-3.6c16.61-4.57,31-13.42,41.73-25.17l-32.02-27.8c-6.62,7.19-19.18,14.96-34.71,14.96Zm-5.71-76.95c13.76,0,25.12,9.02,29.34,23.35h-58.68c4.51-14.33,15.58-23.35,29.34-23.35Z"/></g><g><path class="b" d="M672.67,185.28v65.76h-7.48v-15.22c-5.42,10.19-15.73,16.76-28.37,16.76-19.08,0-33.39-14.83-33.39-34.43s14.31-34.43,33.39-34.43c12.64,0,22.95,6.58,28.37,16.76v-15.22h7.48Zm-7.48,32.88c0-15.47-11.6-27.21-27.08-27.21s-26.95,11.73-26.95,27.21,11.6,27.21,26.95,27.21,27.08-11.73,27.08-27.21Z"/><path class="b" d="M759.32,270.38l-7.74,1.81c-.13-6.58-5.93-10.96-14.57-10.96h-25.92c-10.19,0-17.02-5.8-17.02-14.44,0-5.8,2.96-11.22,7.74-13.79-5.67-5.16-9.16-12.51-9.16-20.89,0-16.12,12.64-28.37,29.53-28.37,6.45,0,12.38,1.81,17.15,5.03,.9-6.83,6.19-11.22,13.8-11.22h4.9v6.96h-4.51c-5.29,0-8.9,3.35-8.9,8.51v.39c4.38,4.9,6.96,11.35,6.96,18.7,0,16.12-12.64,28.24-29.4,28.24-5.8,0-11.22-1.42-15.6-4-3.22,1.81-5.03,5.16-5.03,8.64,0,5.42,4.38,8.9,10.83,8.9h25.92c11.99,0,20.24,6.32,21.02,16.5Zm-37.13-37.13c12.38,0,21.66-9.15,21.66-21.15s-9.28-21.28-21.66-21.28-21.79,9.16-21.79,21.28,9.41,21.15,21.79,21.15Z"/><path class="b" d="M836.56,221.38h-60.34c1.55,14.19,12.89,24.24,27.98,24.24,10.7,0,19.86-5.16,24.63-12.51l5.29,4.38c-6.32,9.28-17.28,15.08-30.17,15.08-20.37,0-35.59-14.96-35.59-34.56s14.7-34.3,34.3-34.3,34.17,14.7,34.17,34.43c0,1.03-.13,2.19-.26,3.22Zm-60.34-6.7h52.74c-1.55-14.05-12.38-23.98-26.43-23.98s-24.76,9.93-26.3,23.98Z"/><path class="b" d="M917.02,211.2v39.84h-7.48v-37.65c0-13.54-8.9-22.44-22.31-22.44s-23.34,9.03-23.34,22.69v37.39h-7.48v-65.76h7.48v12.38c4.9-8.9,13.93-13.93,25.53-13.93,16.5,0,27.59,10.83,27.59,27.46Z"/><path class="b" d="M936.23,218.16c0-19.6,14.96-34.43,34.81-34.43,13.02,0,23.98,6.45,29.91,16.5l-6.58,4c-4.51-7.99-13.15-13.28-23.34-13.28-15.47,0-27.08,11.73-27.08,27.21s11.6,27.21,27.08,27.21c10.19,0,18.83-5.29,23.34-13.28l6.58,4c-5.93,10.06-16.89,16.5-29.91,16.5-19.86,0-34.81-14.83-34.81-34.43Z"/><path class="b" d="M1080,185.28l-37.39,81.1c-3.09,6.96-8.77,10.7-14.83,10.7-4.9,0-10.31-2.45-13.67-6.06l3.35-5.67c2.19,2.71,5.67,4.51,9.28,4.51s6.71-1.81,9.03-6.45l6.06-12.51-29.79-65.63h8.64l25.53,57.12,25.4-57.12h8.38Z"/></g><circle class="b" cx="1053.07" cy="130.92" r="26.92"/></svg>