<svg id="Groupe_4820" data-name="Groupe 4820" xmlns="http://www.w3.org/2000/svg" width="454.39" height="167.977" viewBox="0 0 454.39 167.977">
  <path id="Tracé_39174" data-name="Tracé 39174" d="M79.786,84.342c-4.843-11.48-14.893-22.9-28.306-22.317L0,66.08v86.33a18.648,18.648,0,0,0,3.432,11.542A24.588,24.588,0,0,0,18.589,167.9l32.891-2.591q6.938-.546,14.872-6.618c11.7-12.324,18.831-29.1,18.306-46.265V109.7a71.13,71.13,0,0,0-4.872-25.357M51.195,119q-6.218,19.876-12.877,20.4c-.57.045-.855-.043-.855-.235q-4.859.384-5.713-14.4A67.585,67.585,0,0,1,34.315,107.3q5.946-19.239,12.592-19.762,5.792-.456,6.568,14.315A78.776,78.776,0,0,1,51.195,119" fill="#00d29b"/>
  <path id="Tracé_39175" data-name="Tracé 39175" d="M161.017,110.873c9.235-6.266,15.519-16.208,15.443-27.56V82.092A27.919,27.919,0,0,0,173.6,69.6c-4.93-9.45-14.224-16-25.16-14.977L88.946,59.307V161.99q6.083.118,10.584-.23l3.433-.27a46.528,46.528,0,0,0,13.72-3.207c5.716-2.293,8.589-7.481,8.589-15.508V120.357c8.412,8.849,15.086,20.313,15.158,32.735a29.157,29.157,0,0,1-.583,5.493l30.031-2.366q6.588-.519,6.582-6.266v-.92c-1.265-14.109-12.941-25.153-22.025-34.911v-.3c1.335-.105,3.537-1.088,6.582-2.947M148.7,86.721c-9.908,2.157-17.058,10.758-18.2,20.711-.013.18-.233.2-.259.021-1.062-10.028-8.641-17.458-18.2-17.844-.168,0-.168-.234,0-.275,9.913-2.141,17.07-10.74,18.2-20.7.026-.18.246-.2.259-.02,1.076,10.028,8.655,17.457,18.2,17.831a.137.137,0,0,1,0,.274" fill="#00d29b"/>
  <path id="Tracé_39176" data-name="Tracé 39176" d="M257.408,73.754c-3.71-8.951-7.8-18.419-13.163-26.83l-33.18,2.613c-4.934,8.477-8.481,17.693-12.295,26.709-7.72,20.915-17.662,43.857-18.021,66.551v2.716q.719,9.636,5.441,9.271l30.032-2.365a153.511,153.511,0,0,1,2.578-28.672l17.723-1.4a147.462,147.462,0,0,1,2.578,27.964v.3l30.032-2.365q4.722-.372,5.428-10.127v-2.717c-.384-21.055-9.466-43.106-17.153-61.653M222.22,106.2q4.878-19.463,5.727-19.523l5.143,18.667-10.87.856" fill="#00d29b"/>
  <path id="Tracé_39177" data-name="Tracé 39177" d="M358.656,63.8V38.064l-79.793,6.285V147.032c4.042.08,7.579.007,10.572-.229l3.433-.27a46.549,46.549,0,0,0,13.733-3.208c5.716-2.294,8.577-7.481,8.577-15.507V106l22.309-1.757a28.169,28.169,0,0,0,6.866-1.446c5.813-1.981,8.862-7.106,8.862-15.544V85.143a60.251,60.251,0,0,0-.57-7.529l-37.467,2.951V67.229L358.656,63.8" fill="#00d29b"/>
  <path id="Tracé_39178" data-name="Tracé 39178" d="M453.82,30.334,366.3,37.228V64.793l23.747-1.87v75.118a105.512,105.512,0,0,0,10.584-.23l3.42-.269a46.546,46.546,0,0,0,13.731-3.194c5.716-2.293,8.576-7.5,8.576-15.52V60.063l14.017-1.1a21.578,21.578,0,0,0,7.72-2.118q6.3-3.83,6.3-15.945V38.165a55.723,55.723,0,0,0-.57-7.831" fill="#00d29b"/>
  <path id="Tracé_39179" data-name="Tracé 39179" d="M4.844,5.02,6.411,4.9q7.23-.57,9.546,2.567a11.066,11.066,0,0,1,1.138,5.191V41.324l16.384-1.291V54.217L0,56.854V5.7q2.993-.537,4.844-.683" fill="#fff"/>
  <path id="Tracé_39180" data-name="Tracé 39180" d="M55.879,1.3,72.406,0q1.424,1.624,6.553,13.365c3.917,9.633,8.083,20.18,8.549,30.712v1.357q-.355,4.859-2.706,5.042L69.841,51.655V51.5a80.4,80.4,0,0,0-1.283-13.931l-8.832.695a83.894,83.894,0,0,0-1.283,14.285L43.484,53.73q-2.351.186-2.707-4.615V47.757c.537-11.471,5.154-22.49,8.976-33.148Q54.633,2.871,55.879,1.3m5.557,28.23,5.413-.426c-1.025-3.722-1.538-5.583-2.564-9.305q-.428.034-2.849,9.731" fill="#fff"/>
</svg>
