<?xml version="1.0" encoding="utf-8"?>
<!-- Generator: Adobe Illustrator 16.0.0, SVG Export Plug-In . SVG Version: 6.00 Build 0)  -->
<!DOCTYPE svg PUBLIC "-//W3C//DTD SVG 1.1//EN" "http://www.w3.org/Graphics/SVG/1.1/DTD/svg11.dtd">
<svg version="1.1" id="Calque_1" xmlns="http://www.w3.org/2000/svg" xmlns:xlink="http://www.w3.org/1999/xlink" x="0px" y="0px"
	 width="651.971px" height="186.277px" viewBox="0 0 651.971 186.277" enable-background="new 0 0 651.971 186.277"
	 xml:space="preserve">
<polygon id="bg" fill="#FFFFFF" points="0,0 651.97,0 597.029,89.946 651.97,186.277 0,186.277 "/>
<g id="logo-type" transform="translate(128.000000, 18.000000)">
	<path id="Fill-1" d="M135.148,54.891c-1.065-0.928-2.354-1.734-3.863-2.432c-1.513-0.69-3.229-1.396-5.152-2.119
		c-1.459-0.515-2.709-1.003-3.748-1.465c-1.041-0.462-1.913-0.963-2.615-1.503s-1.224-1.144-1.562-1.812
		c-0.339-0.667-0.51-1.438-0.51-2.313c0-1.697,0.756-2.939,2.267-3.74c1.509-0.796,3.28-1.192,5.309-1.192
		c2.346,0,4.349,0.22,6.016,0.653c1.665,0.438,2.889,0.861,3.669,1.272l-0.008-6.59c0,0-0.264-0.075-0.424-0.118
		c-0.755-0.204-1.628-0.396-2.613-0.577c-0.989-0.179-2.059-0.333-3.202-0.464c-1.146-0.127-2.291-0.191-3.438-0.191
		c-4.58,0-8.195,1.039-10.853,3.122c-2.656,2.08-3.984,4.896-3.984,8.441c0,1.8,0.313,3.316,0.938,4.549
		c0.624,1.233,1.456,2.288,2.498,3.161c1.041,0.876,2.274,1.632,3.709,2.274c1.43,0.644,2.928,1.271,4.487,1.89
		c3.228,1.285,5.543,2.441,6.949,3.47c1.405,1.028,2.109,2.418,2.109,4.163c0,1.695-0.716,2.931-2.148,3.702
		c-1.433,0.771-3.63,1.195-6.598,1.195c-3.023-0.043-5.097-0.218-7.261-0.928c-1.851-0.626-3.109-1.06-3.983-1.388l0.004,6.654
		c0.689,0.225,1.792,0.565,2.809,0.861c2.25,0.608,4.842,0.849,8.434,0.849c5.152,0,9.122-0.95,11.907-2.854
		c2.782-1.899,4.178-4.702,4.178-8.402c0-1.902-0.287-3.512-0.858-4.819C137.033,56.934,136.214,55.814,135.148,54.891z
		 M224.188,67.472c-0.935-0.31-1.752-1.049-2.376-1.796c-0.624-0.743-1.094-1.771-1.407-3.083c-0.312-1.312-0.469-2.969-0.469-4.974
		V39.116h12.089v-6.013h-12.089l0.011-12.605l-7.271,1.688v35.514c0,2.674,0.22,5.026,0.663,7.055
		c0.439,2.032,1.192,3.801,2.288,5.188c1.093,1.388,2.47,2.526,4.266,3.223c1.975,0.818,6.934,1.785,12.144,0.611v-6.291
		C227.864,68.427,225.126,67.779,224.188,67.472z M202.782,32.568c-0.809-0.078-1.521-0.115-2.146-0.115
		c-3.176,0-6.039,0.271-8.589,0.811c-2.552,0.538-4.687,1.115-6.402,1.732v38.396h7.261v-33.69c0.416-0.103,1.289-0.294,2.615-0.577
		c1.327-0.281,2.668-0.425,4.022-0.425c2.078,0,3.785,0.144,5.111,0.425c1.328,0.283,2.276,0.527,2.852,0.731v-6.562
		c-0.652-0.128-1.562-0.288-2.344-0.417C204.384,32.749,203.591,32.646,202.782,32.568z M169.654,64.104
		c-2.057,2.646-4.854,3.97-8.394,3.97c-3.541,0-6.337-1.322-8.394-3.97c-2.059-2.646-3.087-6.232-3.087-10.756
		c0-4.522,1.026-8.108,3.087-10.757c2.055-2.646,4.853-3.97,8.394-3.97c3.539,0,6.337,1.324,8.394,3.97
		c2.059,2.646,3.085,6.232,3.085,10.757C172.739,57.871,171.711,61.457,169.654,64.104z M174.965,38.083
		c-1.691-1.851-3.709-3.275-6.05-4.277c-2.346-1.004-4.896-1.505-7.652-1.505c-2.761,0-5.31,0.501-7.652,1.505
		c-2.344,1.002-4.359,2.429-6.053,4.277c-1.689,1.852-3.006,4.073-3.941,6.668c-0.938,2.599-1.406,5.462-1.406,8.599
		c0,3.188,0.47,6.063,1.406,8.636c0.938,2.571,2.251,4.78,3.941,6.63c1.691,1.852,3.709,3.276,6.053,4.279
		c2.345,1.002,4.894,1.503,7.652,1.503s5.309-0.501,7.652-1.503c2.341-1.003,4.356-2.432,6.05-4.279
		c1.689-1.852,3.007-4.059,3.941-6.63c0.938-2.57,1.405-5.448,1.405-8.636c0-3.137-0.47-6-1.405-8.599
		C177.971,42.156,176.656,39.933,174.965,38.083L174.965,38.083z"/>
	<path id="Fill-3" d="M262.442,20.109c-1.177,0-2.179,0.383-3.002,1.149c-0.825,0.77-1.237,1.805-1.237,3.105
		s0.412,2.338,1.237,3.104c0.823,0.77,1.825,1.153,3.002,1.153c1.178,0,2.18-0.384,3.005-1.153c0.823-0.767,1.237-1.803,1.237-3.104
		s-0.414-2.338-1.237-3.105C264.62,20.492,263.618,20.109,262.442,20.109z M317.318,68.164c-0.938-0.307-1.753-1.047-2.377-1.793
		c-0.626-0.746-1.094-1.771-1.406-3.083c-0.312-1.312-0.47-2.97-0.47-4.974V39.81h12.09v-6.016h-12.09V21.383l-7.261,1.233V58.39
		c0,2.673,0.22,5.023,0.663,7.054c0.439,2.033,1.191,3.801,2.287,5.188c1.094,1.389,2.47,2.527,4.266,3.225
		c1.975,0.815,6.934,1.784,12.144,0.608v-6.29C320.99,69.12,318.255,68.472,317.318,68.164z M297.746,55.583
		c-1.065-0.926-2.354-1.732-3.863-2.429c-1.513-0.693-3.229-1.399-5.152-2.12c-1.457-0.514-2.707-1.002-3.748-1.464
		s-1.913-0.963-2.615-1.503c-0.702-0.541-1.224-1.146-1.562-1.812c-0.339-0.667-0.507-1.438-0.507-2.312
		c0-1.697,0.755-2.941,2.266-3.741c1.509-0.795,3.278-1.193,5.309-1.193c2.346,0,4.348,0.222,6.016,0.655
		c1.665,0.438,2.889,0.86,3.669,1.272l-0.005-6.583c0,0-0.279-0.086-0.423-0.125c-0.757-0.205-1.628-0.396-2.615-0.577
		c-0.989-0.179-2.059-0.334-3.202-0.464c-1.146-0.127-2.292-0.192-3.436-0.192c-4.58,0-8.198,1.04-10.854,3.122
		c-2.654,2.083-3.982,4.896-3.982,8.442c0,1.8,0.313,3.313,0.938,4.549c0.625,1.232,1.456,2.287,2.497,3.161
		c1.04,0.875,2.276,1.632,3.709,2.272c1.431,0.645,2.929,1.272,4.489,1.891c3.227,1.283,5.544,2.44,6.946,3.471
		c1.406,1.028,2.108,2.418,2.108,4.163c0,1.693-0.717,2.93-2.146,3.701c-1.435,0.771-3.633,1.194-6.6,1.194
		c-3.021-0.043-5.097-0.216-7.262-0.926c-1.846-0.626-3.108-1.061-3.982-1.388l0.004,6.651c0.689,0.228,1.792,0.568,2.81,0.862
		c2.25,0.609,4.841,0.848,8.433,0.848c5.152,0,9.122-0.948,11.906-2.852c2.783-1.902,4.179-4.703,4.179-8.405
		c0-1.899-0.287-3.509-0.856-4.816C299.635,57.627,298.815,56.507,297.746,55.583z M258.812,74.086h7.261V33.994h-7.261V74.086z
		 M247.162,67.224c-0.469-0.466-0.809-1.08-1.015-1.852c-0.209-0.771-0.312-1.747-0.312-2.93V15.53l-7.263,1.646v46.426
		c0,3.804,0.938,6.604,2.812,8.403c1.874,1.801,5.518,2.913,10.54,2.973v-6.134c-1.146-0.153-2.108-0.347-2.892-0.576
		C248.258,68.034,247.634,67.688,247.162,67.224L247.162,67.224z"/>
</g>
<g enable-background="new    ">
	<path d="M264.986,145.296h-3.074c-0.355,0-0.642-0.089-0.86-0.267c-0.219-0.177-0.383-0.402-0.492-0.676l-2.746-7.09h-13.175
		l-2.746,7.09c-0.096,0.246-0.26,0.465-0.492,0.655c-0.232,0.191-0.52,0.287-0.861,0.287h-3.073l11.741-29.363h4.037
		L264.986,145.296z M245.745,134.394h10.962l-4.61-11.945c-0.3-0.738-0.594-1.66-0.881-2.767c-0.15,0.561-0.297,1.076-0.44,1.547
		c-0.144,0.472-0.284,0.885-0.42,1.24L245.745,134.394z"/>
	<path d="M275.108,124.19c0.901,0,1.745,0.1,2.53,0.298c0.786,0.197,1.499,0.488,2.142,0.87h5.635v1.353
		c0,0.451-0.287,0.737-0.861,0.86l-2.356,0.328c0.464,0.889,0.697,1.879,0.697,2.971c0,1.012-0.194,1.93-0.584,2.757
		c-0.389,0.826-0.929,1.533-1.619,2.12c-0.69,0.588-1.51,1.038-2.459,1.353s-1.991,0.472-3.125,0.472
		c-0.97,0-1.885-0.116-2.746-0.349c-0.437,0.282-0.768,0.586-0.994,0.911c-0.225,0.324-0.338,0.643-0.338,0.953
		c0,0.509,0.198,0.894,0.594,1.154c0.396,0.262,0.922,0.449,1.578,0.562c0.656,0.113,1.4,0.17,2.233,0.17c0.833,0,1.684,0,2.551,0
		c0.867,0,1.718,0.076,2.551,0.228c0.833,0.152,1.578,0.401,2.233,0.747c0.656,0.346,1.182,0.823,1.578,1.432
		c0.396,0.608,0.594,1.396,0.594,2.364c0,0.898-0.222,1.77-0.666,2.613c-0.444,0.844-1.083,1.594-1.916,2.251
		c-0.833,0.656-1.851,1.182-3.053,1.576s-2.561,0.592-4.077,0.592c-1.517,0-2.845-0.151-3.986-0.451
		c-1.141-0.302-2.086-0.705-2.838-1.211s-1.315-1.091-1.69-1.754c-0.376-0.663-0.563-1.356-0.563-2.082
		c0-1.025,0.324-1.897,0.974-2.614c0.648-0.719,1.54-1.289,2.674-1.713c-0.587-0.273-1.055-0.638-1.404-1.095
		c-0.348-0.457-0.522-1.067-0.522-1.831c0-0.3,0.055-0.61,0.164-0.931c0.109-0.321,0.276-0.638,0.502-0.951
		c0.226-0.314,0.502-0.614,0.83-0.9c0.328-0.286,0.71-0.539,1.147-0.757c-1.025-0.574-1.827-1.336-2.408-2.285
		c-0.581-0.949-0.871-2.06-0.871-3.33c0-1.011,0.195-1.929,0.584-2.756c0.39-0.826,0.933-1.529,1.629-2.11
		c0.696-0.58,1.526-1.027,2.489-1.342C272.906,124.347,273.961,124.19,275.108,124.19z M281.583,146.349
		c0-0.53-0.144-0.955-0.431-1.275c-0.287-0.32-0.676-0.567-1.168-0.741c-0.492-0.175-1.059-0.304-1.701-0.387
		c-0.642-0.084-1.318-0.126-2.028-0.126c-0.71,0-1.435,0-2.172,0c-0.738,0-1.441-0.092-2.111-0.276
		c-0.778,0.369-1.411,0.821-1.896,1.354s-0.727,1.17-0.727,1.908c0,0.465,0.119,0.899,0.358,1.304
		c0.239,0.403,0.604,0.752,1.096,1.047c0.492,0.293,1.11,0.526,1.854,0.697c0.744,0.171,1.622,0.257,2.633,0.257
		c0.984,0,1.865-0.091,2.644-0.271c0.778-0.182,1.438-0.439,1.977-0.773c0.54-0.335,0.953-0.731,1.24-1.191
		C281.44,147.415,281.583,146.906,281.583,146.349z M275.108,135.153c0.737,0,1.39-0.103,1.957-0.308s1.042-0.492,1.424-0.86
		c0.382-0.369,0.669-0.81,0.86-1.322c0.191-0.512,0.287-1.075,0.287-1.69c0-1.271-0.386-2.281-1.158-3.032
		c-0.772-0.751-1.896-1.127-3.371-1.127c-1.462,0-2.579,0.376-3.35,1.127c-0.772,0.751-1.158,1.762-1.158,3.032
		c0,0.615,0.099,1.179,0.297,1.69c0.198,0.513,0.488,0.953,0.871,1.322c0.382,0.368,0.854,0.655,1.414,0.86
		S274.384,135.153,275.108,135.153z"/>
	<path d="M297.279,124.211c1.243,0,2.39,0.209,3.442,0.625c1.052,0.417,1.96,1.018,2.725,1.804c0.765,0.785,1.363,1.755,1.793,2.909
		s0.646,2.469,0.646,3.944c0,0.574-0.062,0.956-0.185,1.147s-0.355,0.287-0.697,0.287h-13.811c0.027,1.312,0.205,2.452,0.533,3.422
		c0.328,0.97,0.779,1.779,1.353,2.428c0.574,0.649,1.256,1.135,2.049,1.455c0.792,0.321,1.68,0.481,2.664,0.481
		c0.915,0,1.704-0.105,2.367-0.317c0.662-0.212,1.232-0.44,1.711-0.687c0.478-0.246,0.877-0.475,1.199-0.687
		c0.321-0.212,0.597-0.317,0.83-0.317c0.3,0,0.533,0.116,0.697,0.349l1.024,1.332c-0.451,0.546-0.991,1.021-1.619,1.424
		c-0.628,0.403-1.301,0.734-2.019,0.993c-0.717,0.26-1.458,0.455-2.223,0.584c-0.765,0.13-1.523,0.195-2.274,0.195
		c-1.434,0-2.756-0.243-3.965-0.728s-2.254-1.195-3.135-2.131c-0.881-0.936-1.568-2.094-2.06-3.474
		c-0.492-1.379-0.738-2.964-0.738-4.754c0-1.447,0.222-2.8,0.666-4.057s1.083-2.347,1.916-3.269
		c0.833-0.922,1.851-1.646,3.053-2.172C294.423,124.474,295.776,124.211,297.279,124.211z M297.36,126.895
		c-1.762,0-3.148,0.509-4.159,1.526c-1.011,1.018-1.64,2.428-1.885,4.231h11.29c0-0.847-0.116-1.622-0.348-2.326
		c-0.232-0.703-0.574-1.311-1.024-1.823s-1.001-0.908-1.649-1.188C298.935,127.036,298.194,126.895,297.36,126.895z"/>
	<path d="M310.535,145.296v-20.757h2.172c0.519,0,0.847,0.253,0.983,0.758l0.287,2.254c0.901-0.997,1.909-1.803,3.022-2.418
		c1.113-0.614,2.4-0.922,3.862-0.922c1.134,0,2.134,0.188,3.002,0.563c0.867,0.376,1.591,0.909,2.172,1.599s1.021,1.52,1.322,2.489
		c0.3,0.971,0.45,2.043,0.45,3.217v13.217h-3.647v-13.217c0-1.57-0.358-2.789-1.076-3.657c-0.717-0.867-1.813-1.301-3.289-1.301
		c-1.08,0-2.087,0.26-3.022,0.778c-0.936,0.52-1.8,1.223-2.592,2.11v15.286H310.535z"/>
	<path d="M347.48,128.227c-0.109,0.15-0.219,0.267-0.328,0.348c-0.109,0.082-0.267,0.123-0.471,0.123
		c-0.205,0-0.428-0.085-0.666-0.256c-0.24-0.171-0.543-0.358-0.912-0.563s-0.816-0.393-1.342-0.563
		c-0.527-0.171-1.172-0.256-1.938-0.256c-1.011,0-1.905,0.181-2.684,0.543c-0.779,0.362-1.432,0.885-1.957,1.567
		c-0.525,0.684-0.922,1.51-1.188,2.479s-0.399,2.056-0.399,3.258c0,1.257,0.144,2.374,0.43,3.351
		c0.287,0.977,0.69,1.796,1.209,2.458c0.52,0.663,1.151,1.168,1.896,1.517c0.744,0.349,1.58,0.522,2.51,0.522
		c0.888,0,1.619-0.105,2.192-0.317s1.052-0.447,1.435-0.707c0.382-0.259,0.696-0.495,0.942-0.707
		c0.245-0.212,0.491-0.317,0.737-0.317c0.314,0,0.547,0.116,0.697,0.349l1.023,1.332c-0.9,1.106-2.027,1.915-3.381,2.428
		c-1.352,0.512-2.779,0.769-4.281,0.769c-1.299,0-2.504-0.239-3.617-0.718c-1.113-0.478-2.08-1.171-2.899-2.079
		s-1.466-2.025-1.937-3.351s-0.707-2.834-0.707-4.528c0-1.544,0.215-2.971,0.646-4.282s1.059-2.441,1.886-3.392
		c0.826-0.949,1.847-1.69,3.062-2.223c1.216-0.533,2.609-0.8,4.18-0.8c1.449,0,2.732,0.236,3.854,0.707
		c1.119,0.472,2.109,1.138,2.971,1.998L347.48,128.227z"/>
	<path d="M360.675,124.211c1.242,0,2.391,0.209,3.442,0.625c1.052,0.417,1.96,1.018,2.726,1.804
		c0.764,0.785,1.362,1.755,1.793,2.909c0.43,1.154,0.645,2.469,0.645,3.944c0,0.574-0.061,0.956-0.184,1.147
		s-0.355,0.287-0.697,0.287h-13.811c0.027,1.312,0.205,2.452,0.533,3.422s0.778,1.779,1.352,2.428
		c0.574,0.649,1.257,1.135,2.049,1.455c0.793,0.321,1.681,0.481,2.664,0.481c0.916,0,1.704-0.105,2.367-0.317
		c0.662-0.212,1.232-0.44,1.711-0.687s0.877-0.475,1.199-0.687c0.32-0.212,0.597-0.317,0.829-0.317c0.3,0,0.532,0.116,0.696,0.349
		l1.025,1.332c-0.451,0.546-0.991,1.021-1.619,1.424c-0.629,0.403-1.301,0.734-2.019,0.993c-0.717,0.26-1.458,0.455-2.224,0.584
		c-0.765,0.13-1.522,0.195-2.273,0.195c-1.435,0-2.756-0.243-3.965-0.728s-2.254-1.195-3.135-2.131
		c-0.882-0.936-1.568-2.094-2.061-3.474c-0.491-1.379-0.737-2.964-0.737-4.754c0-1.447,0.222-2.8,0.666-4.057
		s1.083-2.347,1.916-3.269s1.851-1.646,3.054-2.172C357.82,124.474,359.172,124.211,360.675,124.211z M360.757,126.895
		c-1.762,0-3.148,0.509-4.16,1.526c-1.011,1.018-1.639,2.428-1.885,4.231h11.29c0-0.847-0.116-1.622-0.349-2.326
		c-0.232-0.703-0.573-1.311-1.023-1.823c-0.451-0.513-1.002-0.908-1.65-1.188C362.331,127.036,361.59,126.895,360.757,126.895z"/>
	<path d="M379.013,115.932h3.176c0.355,0,0.643,0.09,0.861,0.267c0.219,0.178,0.383,0.403,0.492,0.677l8.299,20.716
		c0.19,0.464,0.365,0.97,0.521,1.516c0.157,0.547,0.311,1.114,0.461,1.701c0.123-0.587,0.256-1.154,0.4-1.701
		c0.143-0.546,0.311-1.052,0.502-1.516l8.258-20.716c0.095-0.232,0.259-0.447,0.491-0.646c0.231-0.198,0.519-0.298,0.86-0.298h3.197
		l-11.967,29.363h-3.586L379.013,115.932z"/>
	<path d="M415.548,124.211c1.242,0,2.39,0.209,3.441,0.625c1.053,0.417,1.961,1.018,2.726,1.804
		c0.765,0.785,1.362,1.755,1.793,2.909s0.646,2.469,0.646,3.944c0,0.574-0.062,0.956-0.185,1.147s-0.355,0.287-0.696,0.287h-13.811
		c0.027,1.312,0.205,2.452,0.532,3.422c0.328,0.97,0.778,1.779,1.353,2.428c0.574,0.649,1.256,1.135,2.049,1.455
		c0.793,0.321,1.68,0.481,2.664,0.481c0.915,0,1.703-0.105,2.367-0.317c0.662-0.212,1.232-0.44,1.711-0.687
		c0.478-0.246,0.877-0.475,1.198-0.687s0.597-0.317,0.829-0.317c0.301,0,0.533,0.116,0.697,0.349l1.024,1.332
		c-0.45,0.546-0.991,1.021-1.618,1.424c-0.629,0.403-1.302,0.734-2.02,0.993c-0.717,0.26-1.457,0.455-2.223,0.584
		c-0.766,0.13-1.523,0.195-2.274,0.195c-1.435,0-2.756-0.243-3.965-0.728s-2.254-1.195-3.135-2.131
		c-0.882-0.936-1.567-2.094-2.06-3.474c-0.492-1.379-0.738-2.964-0.738-4.754c0-1.447,0.223-2.8,0.666-4.057
		c0.444-1.257,1.083-2.347,1.916-3.269c0.834-0.922,1.852-1.646,3.054-2.172C412.693,124.474,414.044,124.211,415.548,124.211z
		 M415.629,126.895c-1.762,0-3.148,0.509-4.159,1.526c-1.012,1.018-1.64,2.428-1.885,4.231h11.289c0-0.847-0.115-1.622-0.348-2.326
		c-0.232-0.703-0.574-1.311-1.024-1.823s-1.001-0.908-1.649-1.188C417.204,127.036,416.462,126.895,415.629,126.895z
		 M421.572,115.605l-4.774,5.286c-0.191,0.205-0.379,0.352-0.563,0.44c-0.184,0.089-0.42,0.134-0.707,0.134h-2.172l3.033-4.959
		c0.191-0.314,0.398-0.543,0.625-0.687c0.225-0.144,0.557-0.215,0.993-0.215H421.572z"/>
	<path d="M428.804,145.296v-20.757h2.09c0.396,0,0.67,0.075,0.82,0.226s0.252,0.409,0.307,0.778l0.246,3.237
		c0.711-1.447,1.588-2.578,2.633-3.391s2.271-1.22,3.679-1.22c0.573,0,1.093,0.065,1.558,0.195c0.464,0.13,0.895,0.311,1.291,0.543
		l-0.472,2.725c-0.096,0.342-0.308,0.513-0.636,0.513c-0.191,0-0.484-0.064-0.881-0.194s-0.949-0.195-1.66-0.195
		c-1.27,0-2.332,0.369-3.186,1.106c-0.854,0.738-1.567,1.811-2.141,3.217v13.217H428.804z"/>
	<path d="M450.197,118.023c0,0.355-0.072,0.687-0.215,0.993c-0.145,0.308-0.336,0.581-0.574,0.82
		c-0.239,0.238-0.516,0.427-0.83,0.563s-0.648,0.204-1.004,0.204s-0.687-0.067-0.994-0.204c-0.307-0.137-0.58-0.325-0.819-0.563
		c-0.239-0.239-0.427-0.513-0.563-0.82c-0.137-0.307-0.205-0.638-0.205-0.993s0.068-0.693,0.205-1.015s0.324-0.601,0.563-0.84
		s0.513-0.427,0.819-0.563c0.308-0.137,0.639-0.205,0.994-0.205s0.689,0.068,1.004,0.205s0.591,0.324,0.83,0.563
		c0.238,0.239,0.43,0.519,0.574,0.84C450.124,117.33,450.197,117.668,450.197,118.023z M449.376,124.539v20.757h-3.646v-20.757
		H449.376z"/>
	<path d="M456.63,145.296v-17.643l-2.295-0.267c-0.287-0.067-0.522-0.174-0.707-0.317c-0.184-0.144-0.276-0.352-0.276-0.625v-1.495
		h3.278v-1.147c0-1.271,0.198-2.436,0.594-3.494c0.396-1.059,0.99-1.97,1.783-2.735c0.792-0.765,1.779-1.359,2.961-1.782
		c1.182-0.424,2.559-0.636,4.129-0.636c0.52,0,1.049,0.035,1.588,0.105c0.539,0.069,1.008,0.175,1.404,0.314l-0.123,1.906
		c-0.027,0.173-0.109,0.282-0.246,0.329s-0.335,0.07-0.594,0.07c-0.151,0-0.309,0-0.473,0c-0.163,0-0.348,0-0.553,0
		c-2.418,0-4.177,0.5-5.276,1.502c-1.1,1.001-1.649,2.509-1.649,4.524v1.043h12.541v20.347h-3.648v-17.704h-8.77v17.704H456.63z"/>
	<path d="M487.386,124.211c1.243,0,2.391,0.209,3.443,0.625c1.051,0.417,1.959,1.018,2.725,1.804
		c0.765,0.785,1.363,1.755,1.793,2.909s0.646,2.469,0.646,3.944c0,0.574-0.062,0.956-0.185,1.147s-0.355,0.287-0.697,0.287H481.3
		c0.027,1.312,0.205,2.452,0.533,3.422s0.779,1.779,1.353,2.428c0.573,0.649,1.257,1.135,2.049,1.455
		c0.792,0.321,1.681,0.481,2.664,0.481c0.915,0,1.704-0.105,2.366-0.317s1.232-0.44,1.711-0.687s0.878-0.475,1.199-0.687
		c0.32-0.212,0.598-0.317,0.83-0.317c0.3,0,0.532,0.116,0.696,0.349l1.024,1.332c-0.451,0.546-0.99,1.021-1.619,1.424
		c-0.628,0.403-1.301,0.734-2.018,0.993c-0.717,0.26-1.459,0.455-2.224,0.584c-0.765,0.13-1.522,0.195-2.274,0.195
		c-1.434,0-2.756-0.243-3.965-0.728s-2.254-1.195-3.135-2.131s-1.568-2.094-2.06-3.474c-0.491-1.379-0.737-2.964-0.737-4.754
		c0-1.447,0.222-2.8,0.666-4.057c0.443-1.257,1.082-2.347,1.916-3.269c0.832-0.922,1.85-1.646,3.053-2.172
		C484.531,124.474,485.884,124.211,487.386,124.211z M487.468,126.895c-1.762,0-3.148,0.509-4.159,1.526s-1.64,2.428-1.886,4.231
		h11.291c0-0.847-0.117-1.622-0.349-2.326c-0.232-0.703-0.573-1.311-1.024-1.823s-1.001-0.908-1.649-1.188
		C489.042,127.036,488.302,126.895,487.468,126.895z M493.41,115.605l-4.774,5.286c-0.191,0.205-0.379,0.352-0.563,0.44
		s-0.42,0.134-0.706,0.134h-2.173l3.032-4.959c0.191-0.314,0.4-0.543,0.625-0.687c0.227-0.144,0.557-0.215,0.994-0.215H493.41z"/>
	<path d="M508.861,124.211c1.242,0,2.39,0.209,3.441,0.625c1.053,0.417,1.961,1.018,2.726,1.804
		c0.765,0.785,1.362,1.755,1.793,2.909s0.646,2.469,0.646,3.944c0,0.574-0.062,0.956-0.185,1.147s-0.355,0.287-0.696,0.287h-13.811
		c0.027,1.312,0.205,2.452,0.532,3.422c0.328,0.97,0.778,1.779,1.353,2.428c0.574,0.649,1.256,1.135,2.049,1.455
		c0.793,0.321,1.68,0.481,2.664,0.481c0.915,0,1.703-0.105,2.367-0.317c0.662-0.212,1.232-0.44,1.711-0.687
		c0.478-0.246,0.877-0.475,1.198-0.687s0.597-0.317,0.829-0.317c0.301,0,0.533,0.116,0.697,0.349l1.024,1.332
		c-0.45,0.546-0.991,1.021-1.618,1.424c-0.629,0.403-1.302,0.734-2.02,0.993c-0.717,0.26-1.457,0.455-2.223,0.584
		c-0.766,0.13-1.523,0.195-2.274,0.195c-1.435,0-2.756-0.243-3.965-0.728s-2.254-1.195-3.135-2.131
		c-0.882-0.936-1.567-2.094-2.06-3.474c-0.492-1.379-0.738-2.964-0.738-4.754c0-1.447,0.223-2.8,0.666-4.057
		c0.444-1.257,1.083-2.347,1.916-3.269c0.834-0.922,1.852-1.646,3.054-2.172C506.005,124.474,507.357,124.211,508.861,124.211z
		 M508.942,126.895c-1.762,0-3.148,0.509-4.159,1.526c-1.012,1.018-1.64,2.428-1.885,4.231h11.289c0-0.847-0.115-1.622-0.348-2.326
		c-0.232-0.703-0.574-1.311-1.024-1.823s-1.001-0.908-1.649-1.188C510.517,127.036,509.775,126.895,508.942,126.895z"/>
</g>
<rect x="183.914" y="36.755" width="1" height="112.768"/>
<g id="logo" transform="translate(27.000000, 19.000000)">
	<path id="Shape" d="M70.244,65.38c-1.494-0.794-3.833-1.607-7.021-2.453c-3.188-0.84-7.02-1.263-11.501-1.263
		c-3.882,0-7.269,0.771-10.156,2.304c-2.889,1.539-4.33,3.939-4.33,7.213c0,1.686,0.322,3.172,0.972,4.46
		c0.646,1.286,1.642,2.451,2.984,3.492c1.346,1.041,3.014,2.008,5.004,2.898c1.989,0.893,4.381,1.835,7.17,2.826
		c3.683,1.39,6.968,2.749,9.855,4.087c2.886,1.337,5.354,2.896,7.396,4.683c2.037,1.782,3.605,3.939,4.703,6.466
		c1.096,2.527,1.645,5.627,1.645,9.291c0,7.137-2.665,12.539-7.991,16.204c-5.327,3.666-12.918,5.501-22.773,5.501
		c-6.87,0-11.827-0.46-16.132-1.636c-1.939-0.569-4.05-1.229-5.367-1.663l-0.009-12.834c1.671,0.633,4.085,1.468,7.618,2.677
		c4.146,1.367,8.107,1.702,13.893,1.784c5.676,0,9.881-0.815,12.619-2.305c2.738-1.486,4.107-3.865,4.107-7.134
		c0-3.368-1.346-6.045-4.033-8.028c-2.688-1.982-7.12-4.212-13.293-6.689c-2.986-1.188-5.851-2.401-8.587-3.642
		c-2.74-1.239-5.104-2.699-7.094-4.385c-1.993-1.687-3.584-3.717-4.78-6.096c-1.195-2.381-1.792-5.301-1.792-8.771
		c0-6.838,2.539-12.265,7.617-16.277c5.078-4.014,11.998-6.021,20.761-6.021c2.19,0,4.381,0.125,6.571,0.371
		c2.191,0.248,4.231,0.546,6.125,0.893c1.891,0.35,3.559,0.723,5.004,1.115c0.306,0.084,0.809,0.228,0.809,0.228L70.244,65.38z"/>
	<path id="Shape_1_" d="M110.842,131.019c-9.608-0.112-16.577-2.262-20.163-5.73c-3.584-3.468-5.376-8.868-5.376-16.204l0.002-89.51
		L99.193,16.4v90.454c0,2.278,0.197,4.161,0.601,5.646c0.396,1.487,1.045,2.676,1.938,3.567c0.896,0.893,2.094,1.562,3.586,2.007
		c1.492,0.446,3.334,0.817,5.525,1.115L110.842,131.019z"/>
</g>
</svg>
